<svg id="Layer_1" data-name="Layer 1" xmlns="http://www.w3.org/2000/svg" viewBox="0 0 1440 230"><defs><style>.cls-1{fill:#86c55c;}.cls-11,.cls-2{fill:none;stroke-linecap:round;stroke-miterlimit:10;}.cls-2{stroke:#c4dd90;}.cls-3{fill:#c4dd90;}.cls-4{fill:#81c34c;}.cls-5{fill:#7d9b45;}.cls-6{fill:#fff;}.cls-7{fill:#f3e270;}.cls-8{fill:#141041;}.cls-9{fill:#373563;}.cls-10{fill:#efded2;}.cls-11{stroke:#fff;}.cls-12{fill:#f89e26;}.cls-13{fill:#1c9b5c;}.cls-14{fill:#f7a180;}.cls-15{fill:#cb7151;}.cls-16{fill:#49b75c;}</style></defs><rect class="cls-1" x="-3.93" y="-9" width="1455.93" height="244"/><path class="cls-2" d="M1017.05,213.61c-5.31,2.28-12,3.85-21,4.62"/><path class="cls-2" d="M1043.28,186.92l-3,4.22c-4,5.55-7.33,10.44-11.42,14.5"/><path class="cls-2" d="M1106.82,144a121.32,121.32,0,0,0-23,7.06c-12.49,5.55-25,16-33,25.83"/><path class="cls-2" d="M1316.65,60.24c3.27,1.34,6.57,2.77,9.95,4.28"/><path class="cls-2" d="M1265.29,47.91a153.21,153.21,0,0,1,46.36,10.35"/><path class="cls-2" d="M1348.43,74a153.05,153.05,0,0,1,36.68,30.18"/><path class="cls-2" d="M1400.42,129.18a153.1,153.1,0,0,1,16.29,44.62"/><path class="cls-2" d="M1238.66,48.77a81.41,81.41,0,0,1,16-1.32"/><path class="cls-2" d="M1198.74,65.11a106.86,106.86,0,0,1,25.64-12.62"/><path class="cls-3" d="M1429.44,228.67l-84.73-.31h-313.6s-29.25.7-42.68.06c-.75,0-1.45-.08-2.1-.12l-.62-.05-.59-.05-1-.1a10.26,10.26,0,0,1-1.77-.32l-.22-.09a.52.52,0,0,1-.24-.16c-.05-.08,0-.15,0-.23.69-.72,6.67-1.79,21.22-3.36.92-.09,1.81-.2,2.69-.31l2.47-.32,2.52-.38,1-.16c.86-.14,1.7-.29,2.51-.45l1.05-.2.23-.05,1.07-.22c1-.21,2-.44,3-.68l1-.25,1-.25,1-.27c.38-.1.76-.21,1.13-.33.85-.24,1.68-.51,2.48-.78,1.44-.49,2.79-1,4.06-1.53.51-.21,1-.42,1.49-.65l.72-.34c.71-.33,1.4-.68,2-1,.44-.23.87-.47,1.28-.72s.83-.48,1.23-.73.79-.51,1.16-.76.74-.5,1.09-.78.71-.51,1.06-.78a2.32,2.32,0,0,1,.25-.21c.25-.2.5-.4.74-.61s.49-.41.73-.63l.21-.2a32.75,32.75,0,0,0,2.56-2.58c.26-.29.52-.59.77-.89l.61-.74a.83.83,0,0,1,.12-.16c.24-.3.47-.61.7-.92s.6-.84.89-1.26l.41-.61c.21-.32.41-.64.61-1h0c6.52-10.47,8.82-22.89,22.53-33.62,27.1-21.2,58.9-12.05,78.36-34.16S1193.44,57.87,1253,57.87C1299.85,57.87,1396.11,52.49,1429.44,228.67Z"/><path class="cls-4" d="M1436.32,228.67l-91.61-.31H992l-3.53.06c-.75,0-1.45-.08-2.1-.12l-.62-.05-.59-.05-1-.1a11.34,11.34,0,0,1-1.77-.32l-.22-.09a.83.83,0,0,1-.24-.16c-.05-.07,0-.15,0-.23.69-.72,6.67-1.79,21.22-3.36.92-.09,1.81-.2,2.69-.31l2.47-.32,2.52-.38,1-.16c.86-.14,1.7-.29,2.51-.45l1.05-.2.23-.05,1.07-.22c1-.21,2-.44,3-.68l1-.25,1-.25,1-.27c.38-.1.76-.21,1.13-.33.85-.25,1.68-.52,2.48-.78,1.44-.49,2.79-1,4.06-1.53.51-.21,1-.43,1.49-.65l.72-.34c.71-.33,1.4-.68,2-1l1.28-.72c.43-.24.83-.48,1.23-.73l1.16-.76c.37-.26.74-.51,1.09-.78s.71-.52,1.06-.78a2.32,2.32,0,0,1,.25-.21c.25-.2.5-.4.74-.61l.73-.63.21-.2a34.56,34.56,0,0,0,2.56-2.58c.26-.29.52-.59.77-.89l.61-.74a.83.83,0,0,1,.12-.16l.7-.92c.3-.41.6-.84.89-1.26.13-.21.27-.41.41-.61l.61-1h0c14.91-6,28.79-14.24,42.29-22.92,11.11-7.16,26.72-23.85,41.2-21.48,5.73.94,10.36,5.22,13.74,9.94,8.56,11.93,16.76,33.55,34.79,32,7.13-.61,12.84-5.94,17.83-11.06,15.38-15.79,29.59-32.64,44.56-48.78,10.69-11.54,25.42-27.51,43-21.82C1305.36,124.27,1422.57,144.55,1436.32,228.67Z"/><path class="cls-5" d="M1275.56,185c6.52-6.5,7-13.42-8.25-6.06-6.45,3.12-11.64,10.91-15.49,18.85a77.48,77.48,0,0,0,1.38-11.34c4.91-11.11,15.78-30.78,15.41-37.38-.43-7.79-11.73,2.16-17.38,18.18l-.24.72c-3.36-13.63-9-21.91-9.68-16.74-.86,6.49,2.6,23.38,3.47,32,.2,2.06.29,4.67.29,7.49-1,4.55-1.81,8.89-2.49,12.46-1.89-10-5.09-25.88-8.63-36-5.63-16-16.89-26-17.32-18.18s14.72,33.76,17.32,42.42,7.36,28.14,7.36,28.14-8.23-33.33-23.38-40.69-14.73-.44-8.23,6.06,25.12,30.3,26.85,32.9a40.21,40.21,0,0,1,3,5.62s-25.12-23.81-27.72-18.18,30.69,21.49,30.69,21.49l0-.11v.11S1276,211,1273.39,205.36s-27.8,18.18-27.8,18.18a39.65,39.65,0,0,1,3-5.62C1250.36,215.32,1269,191.51,1275.56,185Z"/><path class="cls-5" d="M1411.53,186.6c6.52-6.49,7-13.42-8.25-6.06-6.45,3.12-11.64,10.92-15.49,18.86a77.64,77.64,0,0,0,1.38-11.34c4.91-11.11,15.78-30.78,15.41-37.39-.44-7.79-11.73,2.17-17.38,18.19l-.24.71c-3.36-13.62-9-21.9-9.68-16.73-.86,6.49,2.6,23.37,3.47,32,.2,2,.29,4.67.29,7.48-1,4.56-1.81,8.89-2.49,12.47-1.89-10-5.09-25.88-8.63-36-5.63-16-16.89-26-17.32-18.19s14.72,33.77,17.32,42.43,7.36,28.13,7.36,28.13-8.23-33.33-23.39-40.69-14.72-.43-8.22,6.06,25.12,30.31,26.85,32.9a40.64,40.64,0,0,1,3,5.63s-25.12-23.81-27.72-18.18,30.69,21.49,30.69,21.49l0-.11v.11S1412,212.58,1409.36,207s-27.8,18.18-27.8,18.18a40.07,40.07,0,0,1,3-5.63C1386.33,216.91,1405,193.1,1411.53,186.6Z"/><path class="cls-6" d="M1097.84,105.93a6.88,6.88,0,0,1-.2-1.64,7,7,0,0,1,7-7h.19a10.44,10.44,0,0,1,19.37-.8q.36,0,.72,0a7.58,7.58,0,0,1,7.31,5.61,4.91,4.91,0,0,1,8.46,3.4c0,.13,0,.27,0,.41Z"/><path class="cls-6" d="M1208.41,125a6.76,6.76,0,0,1-.2-1.64,7,7,0,0,1,7-7h.2a10.43,10.43,0,0,1,19.37-.79c.23,0,.47,0,.71,0a7.58,7.58,0,0,1,7.31,5.61,4.92,4.92,0,0,1,8.46,3.4c0,.14,0,.28,0,.41Z"/><path class="cls-6" d="M1262.13,104.34a5.07,5.07,0,0,1-.15-1.24,5.25,5.25,0,0,1,5.24-5.24h.15a7.86,7.86,0,0,1,14.59-.6,4.89,4.89,0,0,1,.54,0,5.71,5.71,0,0,1,5.51,4.23,3.7,3.7,0,0,1,6.37,2.56c0,.1,0,.21,0,.31Z"/><path class="cls-6" d="M1382.23,119.15a5,5,0,0,1-.16-1.23,5.25,5.25,0,0,1,5.25-5.25h.15a7.86,7.86,0,0,1,14.59-.6l.54,0a5.71,5.71,0,0,1,5.51,4.22,3.7,3.7,0,0,1,6.37,2.56,3,3,0,0,1,0,.31Z"/><path class="cls-6" d="M1335.67,104.34a5.07,5.07,0,0,1-.15-1.24,5.25,5.25,0,0,1,5.24-5.24h.15a7.86,7.86,0,0,1,14.59-.6,4.89,4.89,0,0,1,.54,0,5.71,5.71,0,0,1,5.51,4.23,3.7,3.7,0,0,1,6.37,2.56c0,.1,0,.21,0,.31Z"/><path class="cls-5" d="M1324,183.59c-9.27-7.32,4.24-20.08,9.26-25.64,9.21-10.21,9.47-28.54,2.48-34.47s-15.37,7.17-19.57-.76,8.87-43.27-6.69-45.54-14.25,6.49-13.63,21.21-2.08,17.9-13.82,18.86-17.06,22.67-9.3,38,13.53,20.75,1.29,22.94-14.41,18.9.89,32.42a90.56,90.56,0,0,0,29.65,17.23l.53-38-18.52-24.41,18.62,17.32.46-33.08-20.44-22.54,20.49,19,.68-49.06.88,64.87L1326.88,145l-19.56,20.47,0,2.24,1.06,33.17,19.14-4.53-19.69,9,.31,22.95c12.43-4.19,35.38-24.26,34.44-35.68C1341.6,180.3,1331.19,189.26,1324,183.59Z"/><path class="cls-7" d="M1071.78,208.35c-4.32-3.42,2-9.37,4.32-12,4.3-4.77,4.43-13.32,1.16-16.09s-7.17,3.35-9.13-.35,4.14-20.19-3.12-21.25-6.65,3-6.36,9.9-1,8.35-6.45,8.8-8,10.57-4.34,17.72,6.31,9.68.6,10.7-6.72,8.82.42,15.13a42.38,42.38,0,0,0,13.83,8l.25-17.71-8.64-11.39L1063,208l.21-15.43L1053.68,182l9.57,8.85.31-22.9.42,30.27,9.14-7.89-9.12,9.55v1l.5,15.48,8.93-2.11-9.19,4.19.15,10.71c5.8-2,16.5-11.32,16.06-16.65C1080,206.81,1075.14,211,1071.78,208.35Z"/><path class="cls-7" d="M1263.46,226.85c-7.87-3.4-16.5-10.67-20.53-14.52-13-12.37-7.66-22.38,0-18.85s15.32,21.79,21.21,22.38-16.5-30.62-15.32-41.81,14.73-9.42,20.62,4.12,2.36,38.28,4.13,38.87,4.12-16.49,6.48-29.44,21.8-7.07,16.5,12.36a45.79,45.79,0,0,1-15.83,23.35c-2,1.59-4.75,4.24-7.21,5C1270.7,229.19,1267.16,228.45,1263.46,226.85Z"/><path class="cls-7" d="M1405.78,225.26c-7.87-3.4-16.5-10.67-20.53-14.52-13-12.37-7.66-22.38,0-18.84s15.32,21.79,21.21,22.38-16.5-30.63-15.32-41.82,14.73-9.42,20.62,4.13,2.36,38.27,4.13,38.86S1420,199,1422.37,186s21.8-7.07,16.49,12.37A45.84,45.84,0,0,1,1423,221.72c-2,1.59-4.76,4.25-7.22,5C1413,227.6,1409.48,226.86,1405.78,225.26Z"/><path class="cls-7" d="M1020.66,228a32.48,32.48,0,0,1-8.21-5.8c-5.18-5-3.06-9,0-7.54s6.13,8.72,8.48,8.95-6.59-12.24-6.12-16.72,5.89-3.76,8.24,1.65.94,15.31,1.65,15.54,1.65-6.59,2.59-11.77,8.72-2.83,6.6,4.94a18.34,18.34,0,0,1-6.33,9.34,10.71,10.71,0,0,1-2.88,2A6.05,6.05,0,0,1,1020.66,228Z"/><path class="cls-7" d="M1148.2,228a32.85,32.85,0,0,1-8.21-5.8c-5.18-5-3.06-9,0-7.54s6.13,8.72,8.49,8.95-6.6-12.24-6.13-16.72,5.89-3.76,8.25,1.65.94,15.31,1.64,15.54,1.65-6.59,2.6-11.77,8.71-2.83,6.59,4.94a18.34,18.34,0,0,1-6.33,9.34,10.71,10.71,0,0,1-2.88,2A6.06,6.06,0,0,1,1148.2,228Z"/><path class="cls-7" d="M1170.08,228.75a19.17,19.17,0,0,0,4.8-3.69c3-3.15,1.78-5.69,0-4.79s-3.58,5.54-5,5.69,3.86-7.79,3.58-10.64-3.44-2.39-4.82,1.05-.55,9.74-1,9.89-1-4.2-1.51-7.49-5.09-1.8-3.86,3.14a11.76,11.76,0,0,0,3.7,5.94,6.36,6.36,0,0,0,1.68,1.27A3.23,3.23,0,0,0,1170.08,228.75Z"/><path class="cls-8" d="M1175.23,133s-25.13,18.6-25.79,22.52,3.92,33.6,3.92,33.6l3.92,1.31s2.12-26.43,4.24-31.49,23.18-17,23.67-23S1180.46,129.86,1175.23,133Z"/><ellipse class="cls-9" cx="1110.66" cy="200.19" rx="28.51" ry="28.5"/><ellipse class="cls-10" cx="1110.66" cy="200.19" rx="25.31" ry="25.3"/><path class="cls-11" d="M1127.9,206a18.2,18.2,0,0,0-25.18-22.19"/><path class="cls-11" d="M1095.58,190a18.2,18.2,0,0,0,23.3,26.39"/><ellipse class="cls-9" cx="1201.03" cy="200.19" rx="28.51" ry="28.5"/><ellipse class="cls-10" cx="1201.03" cy="200.19" rx="25.31" ry="25.3"/><path class="cls-11" d="M1197.24,218A18.19,18.19,0,0,0,1216,190.23"/><path class="cls-11" d="M1209,183.94a18.19,18.19,0,0,0-23.21,26.47"/><path class="cls-12" d="M1133,144.89a2.28,2.28,0,1,0-2.28,2.28A2.28,2.28,0,0,0,1133,144.89Z"/><path class="cls-12" d="M1130.72,145.87a1,1,0,0,1-.85-.49l-4.61-8.07a1,1,0,0,1,.36-1.33,1,1,0,0,1,1.34.36l4.61,8.07a1,1,0,0,1-.85,1.46Z"/><path class="cls-13" d="M1127.41,137.53s.23.05.58.1c1,.15,2.86.37,3-.24a3.65,3.65,0,0,1,2.06-2.27,1.44,1.44,0,0,1,.76-.08,4.39,4.39,0,0,0,3.21-.6l27.6-18.91-4.13-6.81-29.92,24.54"/><path class="cls-14" d="M1131.49,130.84s-6.53,2.61-7.51,2.94-1.8,0-1.47,2.12,1.14,4.08,2.29,4.08a2.13,2.13,0,0,0,2-1.64c0-.48.16-1.79.65-.81s-.33,1.79,1.14,1.14.49-2,2-3.26a38.55,38.55,0,0,1,3.1-2.45Z"/><circle class="cls-9" cx="1126.13" cy="136.6" r="2.28"/><path class="cls-9" d="M1188.13,138.67a20.5,20.5,0,0,1-6.53,1.8c-3.59.32-6-.17-5.22,2.44s6.36,3.1,10.44,2.12,6-2.44,5.55-5.05S1189.44,138.18,1188.13,138.67Z"/><path class="cls-8" d="M1153.36,189.08a20,20,0,0,1-3.75.66c-2.12.16-5.06-1-5.06-.17s3.59,3.92,5.38,4.08,4.08.33,4.08.33l.09,1.27,2.36.69.82-5.55Z"/><rect class="cls-15" x="1145.36" y="193.16" width="8.65" height="2.45" transform="translate(211.63 -498.16) rotate(26.84)"/><polygon class="cls-12" points="1149.69 194.39 1159.57 201.16 1160.53 198.77 1149.93 193.65 1149.69 194.39"/><path class="cls-12" d="M1201.44,198.56l-19.91-50a.93.93,0,0,0-.23-.35l1-2.77a1,1,0,0,0-1.83-.69l-2.29,6.05h-47.86c.86-3.52,1.29-5.66,1.31-5.74a1,1,0,1,0-1.92-.39c-.07.33-6.8,33.26-19.93,55a1,1,0,0,0,.33,1.35,1,1,0,0,0,.5.14,1,1,0,0,0,.84-.47c7-11.53,12.15-26.14,15.52-37.49l32.48,38.42a1.94,1.94,0,0,0,1.82,1.26h.08l38.31-1.66a2,2,0,0,0,1.73-2.67Zm-71.56-45.78h47.61l-17.56,46.33L1127.68,161C1128.56,157.89,1129.29,155.12,1129.88,152.78Zm31.45,48.16,19-50.11,19.31,48.44Z"/><path class="cls-12" d="M1113.89,200.19a3.23,3.23,0,1,0-3.23,3.23A3.22,3.22,0,0,0,1113.89,200.19Z"/><path class="cls-12" d="M1203.72,200.19a3.23,3.23,0,1,0-3.23,3.23A3.23,3.23,0,0,0,1203.72,200.19Z"/><circle class="cls-15" cx="1160.69" cy="200.19" r="6.65" transform="translate(956.75 1360.23) rotate(-89.81)"/><path class="cls-12" d="M1170.83,201.48l-10.3-2.71a1.49,1.49,0,0,0-1.84,1.07h0a1.5,1.5,0,0,0,1.25,1.87l11.54,1.57Z"/><rect class="cls-15" x="1168.87" y="200.18" width="8.65" height="2.45" transform="translate(234.86 933.85) rotate(-47.72)"/><path class="cls-9" d="M1175.07,132.31s-19.26,19.09-20.24,24.14,18.61,36.88,18.61,36.88l3.92-1.31s-11.27-28.71-9.8-30.83,21.88-17,25.79-23,5.23-11.75,2.29-14.52S1175.07,132.31,1175.07,132.31Z"/><polygon class="cls-13" points="1161.85 110.45 1166.58 139.49 1177.36 134.92 1163.64 107.51 1161.85 110.45"/><path class="cls-9" d="M1167.22,84.25s11.49-2.65,15-4.12,5.3.59,8.25,2.65,11.19-.29,13.55-.88,11.2,1.47,11.2,1.47l2.35,5-6.18.88s-5-4.42-9.14-4.12-8,2.35-12.08,1.76-2.94-3.82-6.77-3.82S1169.06,84.76,1167.22,84.25Z"/><path class="cls-14" d="M1169.62,74.19c1.16-3.25-.7-5.81-2.56-7.44-1.35-1.18-4-.37-3.73-2.33.12-.71,2-.18,1.26-1.61-1-2.08-5-.32-6.14.68-1.63,1.4-3.75-1.16-5.59-1.86-2.62-1-8.61-.23-9.78,3.72S1148,72.1,1148,72.1l-.62,4.93,1.25,1.11-1.39,5.26,2.31.31c.22,1.38.43,2.68.62,3.65.72,3.73,3.16,3.45,4.74,2.87a13.33,13.33,0,0,0,2.82-1.82l3.7,3.14,6.63-7.22-2.83-4.09A17.24,17.24,0,0,0,1169.62,74.19Z"/><path class="cls-9" d="M1167.06,66.75c-1.35-1.18-4-.37-3.73-2.33.12-.71,2-.18,1.26-1.61-1-2.08-5-.32-6.14.68-1.63,1.4-3.75-1.16-5.59-1.86-2.62-1-8.61-.23-9.78,3.72S1148,72.1,1148,72.1s5.43.53,4.84,1.31-1.36,2.73.2,3.32,2.34.39,2.34,1.56,1.36,2.53,1.75,1,2-2.53,3.13-1.17-.78,4.68-.78,4.68a55.58,55.58,0,0,0,5.75-2.53,17.24,17.24,0,0,0,4.42-6C1170.78,70.94,1168.92,68.38,1167.06,66.75Z"/><path class="cls-16" d="M1169,81.41s-14,13.86-13.87,15.66-.17,1.3,4.24,10.28,12.08,23.49,14,26.92,2.61,4.73,2.61,4.73,15.51-7,19.43-10.77a46.21,46.21,0,0,0,6.85-8.81s-20.08-25.12-24.81-30.18A69.39,69.39,0,0,0,1169,81.41Z"/><polygon class="cls-10" points="1134.1 129.04 1131.49 130.84 1133.94 133.61 1136.06 132.15 1134.1 129.04"/><path class="cls-16" d="M1171.81,90.71s-4.08-1.47-7.35.32-31.67,38.67-31.67,38.67l3.11,3.26,39.33-27.08"/><path class="cls-8" d="M1173.44,193.33s-1.8,1.95-3.59,3.75-4.08,2.28-3.27,2.77,2.13,1,4.57.16,5.55-3.59,5.55-3.59l.49.82,2.78-1.47-2.61-3.75Z"/><path class="cls-6" d="M1223.47,76.3a10.17,10.17,0,0,1-.29-2.36,10,10,0,0,1,10-10h.28a15,15,0,0,1,27.86-1.14c.34,0,.68,0,1,0a10.89,10.89,0,0,1,10.51,8.07,7.07,7.07,0,0,1,12.17,4.89,5.83,5.83,0,0,1,0,.59Z"/></svg>