<?xml version="1.0" encoding="UTF-8" standalone="no" ?>
<!DOCTYPE svg PUBLIC "-//W3C//DTD SVG 1.1//EN" "http://www.w3.org/Graphics/SVG/1.1/DTD/svg11.dtd">
<svg xmlns="http://www.w3.org/2000/svg" xmlns:xlink="http://www.w3.org/1999/xlink" version="1.1" width="1080" height="1080" viewBox="0 0 1080 1080" xml:space="preserve">
<desc>Created with Fabric.js 5.2.4</desc>
<defs>
</defs>
<g transform="matrix(1 0 0 1 540 540)" id="d12f0ade-9fa7-4428-8699-31034c7c6d16"  >
</g>
<g transform="matrix(1 0 0 1 540 540)" id="a80c18c5-b642-4639-8a29-4ef47a8dc760"  >
<rect style="stroke: none; stroke-width: 1; stroke-dasharray: none; stroke-linecap: butt; stroke-dashoffset: 0; stroke-linejoin: miter; stroke-miterlimit: 4; fill: rgb(255,255,255); fill-rule: nonzero; opacity: 1;" vector-effect="non-scaling-stroke"  x="-540" y="-540" rx="0" ry="0" width="1080" height="1080" />
</g>
<g transform="matrix(45 0 0 45 540 540)"  >
<path style="stroke: none; stroke-width: 1; stroke-dasharray: none; stroke-linecap: butt; stroke-dashoffset: 0; stroke-linejoin: miter; stroke-miterlimit: 4; fill: rgb(101,208,30); fill-rule: nonzero; opacity: 1;"  transform=" translate(-12, -12)" d="M 18.18 10 L 16.48 5.32 C 16.19 4.53 15.44 4 14.6 4 L 12 4 L 12 6 L 14.6 6 L 16.06 10 L 11.25 10 L 10.89 9 L 12 9 L 12 7 L 7 7 L 7 9 L 8.75 9 L 10.57 14 L 9.9 14 C 9.46 11.77 7.59 10.120000000000001 5.25 10.01 C 2.45 9.87 0 12.2 0 15 C 0 17.8 2.2 20 5 20 C 7.46 20 9.45 18.31 9.9 16 L 14.100000000000001 16 C 14.540000000000001 18.23 16.41 19.88 18.75 19.990000000000002 C 21.55 20.12 24 17.8 24 14.990000000000002 C 24 12.190000000000001 21.8 9.990000000000002 19 9.990000000000002 L 18.18 9.990000000000002 z M 7.82 16 C 7.42 17.17 6.33 18 5 18 C 3.3200000000000003 18 2 16.68 2 15 C 2 13.32 3.3200000000000003 12 5 12 C 6.33 12 7.42 12.83 7.82 14 L 5 14 L 5 16 L 7.82 16 z M 14.100000000000001 14 L 12.700000000000001 14 L 11.97 12 L 15 12 C 14.56 12.58 14.24 13.25 14.1 14 z M 19 18 C 17.32 18 16 16.68 16 15 C 16 14.07 16.41 13.27 17.05 12.72 L 18.01 15.360000000000001 L 19.89 14.680000000000001 L 18.92 12.010000000000002 C 18.950000000000003 12.010000000000002 18.98 12.000000000000002 19.01 12.000000000000002 C 20.69 12.000000000000002 22.01 13.320000000000002 22.01 15.000000000000002 C 22.01 16.68 20.68 18 19 18 z" stroke-linecap="round" />
</g>
<g transform="matrix(NaN NaN NaN NaN 0 0)"  >
<g style=""   >
</g>
</g>
<g transform="matrix(NaN NaN NaN NaN 0 0)"  >
<g style=""   >
</g>
</g>
</svg>