<?xml version="1.0" encoding="UTF-8" standalone="no" ?>
<!DOCTYPE svg PUBLIC "-//W3C//DTD SVG 1.1//EN" "http://www.w3.org/Graphics/SVG/1.1/DTD/svg11.dtd">
<svg xmlns="http://www.w3.org/2000/svg" xmlns:xlink="http://www.w3.org/1999/xlink" version="1.1" width="1080" height="1080" viewBox="0 0 1080 1080" xml:space="preserve">
<desc>Created with Fabric.js 5.2.4</desc>
<defs>
</defs>
<g transform="matrix(1 0 0 1 540 540)" id="d12f0ade-9fa7-4428-8699-31034c7c6d16"  >
</g>
<g transform="matrix(1 0 0 1 540 540)" id="a80c18c5-b642-4639-8a29-4ef47a8dc760"  >
<rect style="stroke: none; stroke-width: 1; stroke-dasharray: none; stroke-linecap: butt; stroke-dashoffset: 0; stroke-linejoin: miter; stroke-miterlimit: 4; fill: rgb(255,255,255); fill-rule: nonzero; opacity: 1;" vector-effect="non-scaling-stroke"  x="-540" y="-540" rx="0" ry="0" width="1080" height="1080" />
</g>
<g transform="matrix(NaN NaN NaN NaN 0 0)"  >
<g style=""   >
</g>
</g>
<g transform="matrix(45 0 0 45 540 540)"  >
<path style="stroke: none; stroke-width: 1; stroke-dasharray: none; stroke-linecap: butt; stroke-dashoffset: 0; stroke-linejoin: miter; stroke-miterlimit: 4; fill: rgb(101,208,30); fill-rule: nonzero; opacity: 1;"  transform=" translate(-12, -12)" d="M 19 7 L 18.18 7 L 16.48 2.3200000000000003 C 16.19 1.53 15.44 1 14.6 1 L 12 1 L 12 3 L 14.6 3 L 16.06 7 L 11.25 7 L 10.89 6 L 12 6 L 12 4 L 7 4 L 7 6 L 8.75 6 L 10.57 11 L 9.9 11 C 9.46 8.77 7.59 7.12 5.25 7.01 C 2.45 6.87 0 9.2 0 12 C 0 14.8 2.2 17 5 17 C 7.46 17 9.45 15.31 9.9 13 L 14.100000000000001 13 C 14.540000000000001 15.23 16.41 16.88 18.75 16.990000000000002 C 21.55 17.12 24 14.800000000000002 24 11.990000000000002 C 24 9.2 21.8 7 19 7 z M 7.82 13 C 7.42 14.17 6.33 15 5 15 C 3.3200000000000003 15 2 13.68 2 12 C 2 10.32 3.3200000000000003 9 5 9 C 6.33 9 7.42 9.83 7.82 11 L 5 11 L 5 13 L 7.82 13 z M 14.100000000000001 11 L 12.700000000000001 11 L 11.97 9 L 15 9 C 14.56 9.58 14.24 10.25 14.1 11 z M 19 15 C 17.32 15 16 13.68 16 12 C 16 11.07 16.41 10.27 17.05 9.72 L 18.01 12.360000000000001 L 19.89 11.680000000000001 L 18.92 9.010000000000002 C 18.94 9.010000000000002 18.970000000000002 9.000000000000002 19 9.000000000000002 C 20.68 9.000000000000002 22 10.320000000000002 22 12.000000000000002 C 22 13.680000000000001 20.68 15.000000000000002 19 15.000000000000002 z M 11 20 L 7 20 L 13 23 L 13 21 L 17 21 L 11 18 z" stroke-linecap="round" />
</g>
<g transform="matrix(NaN NaN NaN NaN 0 0)"  >
<g style=""   >
</g>
</g>
<g transform="matrix(NaN NaN NaN NaN 0 0)"  >
<g style=""   >
</g>
</g>
</svg>